<svg xmlns="http://www.w3.org/2000/svg" viewBox="0 0 24 24" width="24" height="24">
  <rect width="24" height="24" rx="5" fill="#07C160"/>
  <path d="M9 5 C6.2 5 4 7 4 9.5 C4 11 4.8 12.3 6 13.1 L5.5 14.8 L7.3 13.8 C7.9 14 8.4 14.1 9 14.1 C9.2 14.1 9.3 14.1 9.5 14 C9.2 13.6 9 13.1 9 12.5 C9 10 11.2 8 14 8 C14.2 8 14.3 8 14.5 8 C14 6.3 11.7 5 9 5 Z" fill="white"/>
  <path d="M14 9 C11.8 9 10 10.6 10 12.5 C10 14.4 11.8 16 14 16 C14.4 16 14.8 15.9 15.2 15.8 L16.6 16.5 L16.2 15.2 C17.2 14.5 17.8 13.5 17.8 12.5 C17.8 10.6 16.2 9 14 9 Z" fill="white" opacity="0.9"/>
</svg>